<?xml version="1.0" encoding="UTF-8" standalone="no"?>
<!DOCTYPE svg PUBLIC "-//W3C//DTD SVG 1.1//EN"
 "http://www.w3.org/Graphics/SVG/1.1/DTD/svg11.dtd">
<!-- Generated by graphviz version 2.38.0 (20140413.2041)
 -->
<!-- Title: %3 Pages: 1 -->
<svg width="593pt" height="355pt"
 viewBox="0.00 0.00 592.89 355.00" xmlns="http://www.w3.org/2000/svg" xmlns:xlink="http://www.w3.org/1999/xlink">
<g id="graph0" class="graph" transform="scale(1 1) rotate(0) translate(4 351)">
<title>%3</title>
<polygon fill="#333333" stroke="none" points="-4,4 -4,-351 588.891,-351 588.891,4 -4,4"/>
<text text-anchor="middle" x="292.446" y="-9.2" font-family="Times,serif" font-size="16.00" fill="white">Network Map</text>
<!-- R3 -->
<g id="node1" class="node"><title>R3</title>
<polygon fill="#006699" stroke="#006699" points="153.891,-223 77.891,-223 77.891,-150 153.891,-150 153.891,-223"/>
<text text-anchor="middle" x="115.891" y="-182.8" font-family="Helvetica,sans-Serif" font-size="14.00" fill="white">R3</text>
</g>
<!-- R5 -->
<g id="node2" class="node"><title>R5</title>
<polygon fill="#006699" stroke="#006699" points="92.891,-347 16.891,-347 16.891,-274 92.891,-274 92.891,-347"/>
<text text-anchor="middle" x="54.891" y="-306.8" font-family="Helvetica,sans-Serif" font-size="14.00" fill="white">R5</text>
</g>
<!-- R3&#45;&#45;R5 -->
<g id="edge7" class="edge"><title>R3&#45;&#45;R5</title>
<path fill="none" stroke="green" stroke-dasharray="5,2" d="M77.6297,-213.06C68.898,-220.912 60.7632,-230.337 55.891,-241 51.294,-251.061 49.9051,-262.852 50,-273.788"/>
<text text-anchor="middle" x="105.891" y="-244.8" font-family="Courier,monospace" font-size="14.00" fill="white"> &#160;&#160;&#160;&#160;&#160;&#160;&#160;&#160;&#160;&#160;&#160;</text>
<text text-anchor="middle" x="25" y="-262.588" font-family="Courier,monospace" font-size="14.00" fill="white">Eth0/0</text>
<text text-anchor="middle" x="52.6297" y="-201.86" font-family="Courier,monospace" font-size="14.00" fill="white">Eth0/2</text>
</g>
<!-- R4 -->
<g id="node6" class="node"><title>R4</title>
<polygon fill="#006699" stroke="#006699" points="215.891,-347 139.891,-347 139.891,-274 215.891,-274 215.891,-347"/>
<text text-anchor="middle" x="177.891" y="-306.8" font-family="Helvetica,sans-Serif" font-size="14.00" fill="white">R4</text>
</g>
<!-- R3&#45;&#45;R4 -->
<g id="edge6" class="edge"><title>R3&#45;&#45;R4</title>
<path fill="none" stroke="green" stroke-dasharray="5,2" d="M145.126,-223.279C149.066,-229.007 152.807,-235.023 155.891,-241 161.161,-251.212 165.484,-262.931 168.861,-273.755"/>
<text text-anchor="middle" x="212.891" y="-244.8" font-family="Courier,monospace" font-size="14.00" fill="white"> &#160;&#160;&#160;&#160;&#160;&#160;&#160;&#160;&#160;&#160;&#160;</text>
<text text-anchor="middle" x="143.861" y="-262.555" font-family="Courier,monospace" font-size="14.00" fill="white">Eth0/0</text>
<text text-anchor="middle" x="120.126" y="-227.079" font-family="Courier,monospace" font-size="14.00" fill="white">Eth0/1</text>
</g>
<!-- R1 -->
<g id="node3" class="node"><title>R1</title>
<polygon fill="#006699" stroke="#006699" points="276.891,-223 200.891,-223 200.891,-150 276.891,-150 276.891,-223"/>
<text text-anchor="middle" x="238.891" y="-182.8" font-family="Helvetica,sans-Serif" font-size="14.00" fill="white">R1</text>
</g>
<!-- SW1 -->
<g id="node4" class="node"><title>SW1</title>
<polygon fill="#006699" stroke="#006699" points="344.391,-99 255.391,-99 255.391,-26 344.391,-26 344.391,-99"/>
<text text-anchor="middle" x="299.891" y="-58.8" font-family="Helvetica,sans-Serif" font-size="14.00" fill="white">SW1</text>
</g>
<!-- SW1&#45;&#45;R3 -->
<g id="edge3" class="edge"><title>SW1&#45;&#45;R3</title>
<path fill="none" stroke="green" stroke-dasharray="5,2" d="M255.249,-65.8524C217.125,-70.2939 163.572,-82.7171 131.891,-117 123.685,-125.879 119.433,-138.135 117.305,-149.829"/>
<text text-anchor="middle" x="181.891" y="-120.8" font-family="Courier,monospace" font-size="14.00" fill="white"> &#160;&#160;&#160;&#160;&#160;&#160;&#160;&#160;&#160;&#160;&#160;</text>
<text text-anchor="middle" x="92.3045" y="-138.629" font-family="Courier,monospace" font-size="14.00" fill="white">Eth0/0</text>
<text text-anchor="middle" x="230.249" y="-54.6524" font-family="Courier,monospace" font-size="14.00" fill="white">Eth0/3</text>
</g>
<!-- SW1&#45;&#45;R1 -->
<g id="edge1" class="edge"><title>SW1&#45;&#45;R1</title>
<path fill="none" stroke="green" stroke-dasharray="5,2" d="M255.234,-95.2384C249.034,-101.702 243.545,-109.003 239.891,-117 235.294,-127.061 233.905,-138.852 234,-149.788"/>
<text text-anchor="middle" x="289.891" y="-120.8" font-family="Courier,monospace" font-size="14.00" fill="white"> &#160;&#160;&#160;&#160;&#160;&#160;&#160;&#160;&#160;&#160;&#160;</text>
<text text-anchor="middle" x="209" y="-138.588" font-family="Courier,monospace" font-size="14.00" fill="white">Eth0/0</text>
<text text-anchor="middle" x="230.234" y="-84.0384" font-family="Courier,monospace" font-size="14.00" fill="white">Eth0/1</text>
</g>
<!-- R6 -->
<g id="node5" class="node"><title>R6</title>
<polygon fill="#006699" stroke="#006699" points="399.891,-223 323.891,-223 323.891,-150 399.891,-150 399.891,-223"/>
<text text-anchor="middle" x="361.891" y="-182.8" font-family="Helvetica,sans-Serif" font-size="14.00" fill="white">R6</text>
</g>
<!-- SW1&#45;&#45;R6 -->
<g id="edge4" class="edge"><title>SW1&#45;&#45;R6</title>
<path fill="none" stroke="green" stroke-dasharray="5,2" d="M329.126,-99.2785C333.066,-105.007 336.807,-111.023 339.891,-117 345.161,-127.212 349.484,-138.931 352.861,-149.755"/>
<text text-anchor="middle" x="396.891" y="-120.8" font-family="Courier,monospace" font-size="14.00" fill="white"> &#160;&#160;&#160;&#160;&#160;&#160;&#160;&#160;&#160;&#160;&#160;</text>
<text text-anchor="middle" x="327.861" y="-138.555" font-family="Courier,monospace" font-size="14.00" fill="white">Eth0/1</text>
<text text-anchor="middle" x="304.126" y="-103.079" font-family="Courier,monospace" font-size="14.00" fill="white">Eth0/5</text>
</g>
<!-- R2 -->
<g id="node7" class="node"><title>R2</title>
<polygon fill="#006699" stroke="#006699" points="522.891,-223 446.891,-223 446.891,-150 522.891,-150 522.891,-223"/>
<text text-anchor="middle" x="484.891" y="-182.8" font-family="Helvetica,sans-Serif" font-size="14.00" fill="white">R2</text>
</g>
<!-- SW1&#45;&#45;R2 -->
<g id="edge2" class="edge"><title>SW1&#45;&#45;R2</title>
<path fill="none" stroke="green" stroke-dasharray="5,2" d="M344.442,-70.0766C377.196,-76.921 421.026,-90.5254 450.891,-117 460.727,-125.719 468.04,-137.939 473.311,-149.648"/>
<text text-anchor="middle" x="513.891" y="-120.8" font-family="Courier,monospace" font-size="14.00" fill="white"> &#160;&#160;&#160;&#160;&#160;&#160;&#160;&#160;&#160;&#160;&#160;</text>
<text text-anchor="middle" x="448.311" y="-138.448" font-family="Courier,monospace" font-size="14.00" fill="white">Eth0/0</text>
<text text-anchor="middle" x="369.442" y="-58.8766" font-family="Courier,monospace" font-size="14.00" fill="white">Eth0/2</text>
</g>
<!-- SW2 -->
<g id="node8" class="node"><title>SW2</title>
<polygon fill="#006699" stroke="#006699" points="529.391,-347 440.391,-347 440.391,-274 529.391,-274 529.391,-347"/>
<text text-anchor="middle" x="484.891" y="-306.8" font-family="Helvetica,sans-Serif" font-size="14.00" fill="white">SW2</text>
</g>
<!-- R2&#45;&#45;SW2 -->
<g id="edge5" class="edge"><title>R2&#45;&#45;SW2</title>
<path fill="none" stroke="green" stroke-dasharray="5,2" d="M484.891,-223.115C484.891,-239.01 484.891,-257.704 484.891,-273.629"/>
<text text-anchor="middle" x="534.891" y="-244.8" font-family="Courier,monospace" font-size="14.00" fill="white"> &#160;&#160;&#160;&#160;&#160;&#160;&#160;&#160;&#160;&#160;&#160;</text>
<text text-anchor="middle" x="455.891" y="-262.429" font-family="Courier,monospace" font-size="14.00" fill="white">Eth0/11</text>
<text text-anchor="middle" x="459.891" y="-226.915" font-family="Courier,monospace" font-size="14.00" fill="white">Eth0/1</text>
</g>
</g>
</svg>
